<?xml version="1.0" encoding="iso-8859-1"?>
<!-- Generator: Adobe Illustrator 19.0.0, SVG Export Plug-In . SVG Version: 6.00 Build 0)  -->
<svg version="1.1" id="Capa_1" xmlns="http://www.w3.org/2000/svg" xmlns:xlink="http://www.w3.org/1999/xlink" x="0px" y="0px"
	 viewBox="0 0 480 480" style="enable-background:new 0 0 480 480;" xml:space="preserve">
<g>
	<g>
		<path d="M456,0H24C10.745,0,0,10.745,0,24v328c0,13.255,10.745,24,24,24h140.904l-18.664,56H64c-4.418,0-8,3.582-8,8v32
			c0,4.418,3.582,8,8,8h368c4.418,0,8-3.582,8-8v-32c0-4.418-3.582-8-8-8h-98.24l-18.664-56H456c13.255,0,24-10.745,24-24V24
			C480,10.745,469.255,0,456,0z M424,448v16H72v-16H424z M316.896,432H163.104l18.664-56h116.464L316.896,432z M464,352
			c0,4.418-3.582,8-8,8H24c-4.418,0-8-3.582-8-8v-40h448V352z M464,296H16V48h448V296z M464,32H16v-8c0-4.418,3.582-8,8-8h432
			c4.418,0,8,3.582,8,8V32z"/>
	</g>
</g>
<g>
	<g>
		<path d="M160,176h-32c-4.418,0-8,3.582-8,8v88c0,4.418,3.582,8,8,8h32c4.418,0,8-3.582,8-8v-88C168,179.582,164.418,176,160,176z
			 M152,264h-16v-72h16V264z"/>
	</g>
</g>
<g>
	<g>
		<path d="M224,136h-32c-4.418,0-8,3.582-8,8v128c0,4.418,3.582,8,8,8h32c4.418,0,8-3.582,8-8V144C232,139.582,228.418,136,224,136z
			 M216,264h-16V152h16V264z"/>
	</g>
</g>
<g>
	<g>
		<path d="M288,104h-32c-4.418,0-8,3.582-8,8v160c0,4.418,3.582,8,8,8h32c4.418,0,8-3.582,8-8V112C296,107.582,292.418,104,288,104z
			 M280,264h-16V120h16V264z"/>
	</g>
</g>
<g>
	<g>
		<path d="M352,64h-32c-4.418,0-8,3.582-8,8v200c0,4.418,3.582,8,8,8h32c4.418,0,8-3.582,8-8V72C360,67.582,356.418,64,352,64z
			 M344,264h-16V80h16V264z"/>
	</g>
</g>
<g>
	<g>
		<rect x="32" y="64" width="80" height="16"/>
	</g>
</g>
<g>
	<g>
		<rect x="32" y="96" width="80" height="16"/>
	</g>
</g>
<g>
	<g>
		<rect x="32" y="128" width="40" height="16"/>
	</g>
</g>
<g>
	<g>
		<rect x="400" y="200" width="48" height="16"/>
	</g>
</g>
<g>
	<g>
		<rect x="400" y="232" width="48" height="16"/>
	</g>
</g>
<g>
	<g>
		<rect x="400" y="264" width="48" height="16"/>
	</g>
</g>
<g>
	<g>
		<rect x="232" y="328" width="16" height="16"/>
	</g>
</g>
<g>
</g>
<g>
</g>
<g>
</g>
<g>
</g>
<g>
</g>
<g>
</g>
<g>
</g>
<g>
</g>
<g>
</g>
<g>
</g>
<g>
</g>
<g>
</g>
<g>
</g>
<g>
</g>
<g>
</g>
</svg>
