<svg viewBox="0 0 512 512" xmlns="http://www.w3.org/2000/svg"><path d="m296 352c-5.519531 0-10 4.480469-10 10s4.480469 10 10 10 10-4.480469 10-10-4.480469-10-10-10zm0 0"/><path d="m482 0h-452c-16.542969 0-30 13.457031-30 30v352c0 16.542969 13.457031 30 30 30h176v10c0 16.542969-13.457031 30-30 30h-20c-16.542969 0-30 13.457031-30 30v20c0 5.523438 4.476562 10 10 10h240c5.523438 0 10-4.476562 10-10v-20c0-16.542969-13.457031-30-30-30h-20c-16.542969 0-30-13.457031-30-30v-10h176c16.542969 0 30-13.457031 30-30v-352c0-16.542969-13.457031-30-30-30zm-452 20h452c5.515625 0 10 4.484375 10 10v282h-472v-282c0-5.515625 4.484375-10 10-10zm336 462v10h-220v-10c0-5.515625 4.484375-10 10-10h200c5.515625 0 10 4.484375 10 10zm-69.972656-30h-80.054688c6.292969-8.363281 10.027344-18.753906 10.027344-30v-10h60v10c0 11.246094 3.734375 21.636719 10.027344 30zm185.972656-60h-452c-5.515625 0-10-4.484375-10-10v-50h472v50c0 5.515625-4.484375 10-10 10zm0 0"/><path d="m256 352h-40c-5.523438 0-10 4.476562-10 10s4.476562 10 10 10h40c5.523438 0 10-4.476562 10-10s-4.476562-10-10-10zm0 0"/><path d="m186 236c0 16.542969 13.457031 30 30 30s30-13.457031 30-30-13.457031-30-30-30-30 13.457031-30 30zm30-10c5.515625 0 10 4.484375 10 10s-4.484375 10-10 10-10-4.484375-10-10 4.484375-10 10-10zm0 0"/><path d="m266 236c0 16.542969 13.457031 30 30 30s30-13.457031 30-30-13.457031-30-30-30-30 13.457031-30 30zm30-10c5.515625 0 10 4.484375 10 10s-4.484375 10-10 10-10-4.484375-10-10 4.484375-10 10-10zm0 0"/><path d="m136 86h22.191406c2.21875 8.871094 24.792969 99.175781 28.105469 112.425781 1.113281 4.453125 5.113281 7.574219 9.703125 7.574219h120c4.589844 0 8.589844-3.121094 9.699219-7.574219l20-80c.746093-2.988281.078125-6.152343-1.816407-8.582031-1.894531-2.425781-4.804687-3.84375-7.882812-3.84375h-152.191406l-8.109375-32.425781c-1.109375-4.453125-5.109375-7.574219-9.699219-7.574219h-30c-5.523438 0-10 4.476562-10 10s4.476562 10 10 10zm187.191406 40-15 60h-104.382812l-15-60zm0 0"/><path d="m236 166h40c5.523438 0 10-4.476562 10-10s-4.476562-10-10-10h-40c-5.523438 0-10 4.476562-10 10s4.476562 10 10 10zm0 0"/></svg>